<svg viewBox="0 0 186 148" fill="none" xmlns="http://www.w3.org/2000/svg">
    <path d="M92.7002 102.7H57.9002C57.2002 102.7 56.7002 102.1 56.7002 101.4V53.7C56.7002 53 57.2002 52.5 57.9002 52.5H92.0002C92.6002 52.5 93.2002 53 93.2002 53.7V60.1C93.2002 60.8 92.6002 61.3 92.0002 61.3H69.3002C68.7002 61.3 68.1002 61.9 68.1002 62.6V71.8C68.1002 72.5 68.7002 73.1 69.3002 73.1H90.3002C91.0002 73.1 91.5002 73.6 91.5002 74.3V80.7C91.5002 81.4 91.0002 82 90.3002 82H69.3002C68.7002 82 68.1002 82.5 68.1002 83.2V92.5C68.1002 93.2 68.7002 93.7 69.3002 93.7H92.7002C93.4002 93.7 93.9002 94.3 93.9002 95V101.4C93.9002 102.1 93.4002 102.7 92.7002 102.7Z" fill="#141414"/>
    <path d="M145.4 85.9999V86.1999H142.9V85.9999C142.6 84.4999 141.7 83.6999 140.1 83.6999C138.1 83.6999 136.8 85.2999 136.8 88.0999C136.8 91.0999 138.2 92.6999 140 92.6999C141.6 92.6999 142.5 91.6999 142.9 90.1999V89.9999H145.3V90.1999C145 92.7999 143.1 94.4999 139.9 94.4999C136.6 94.4999 134.2 92.0999 134.2 88.1999C134.2 84.2999 136.8 81.8999 140.1 81.8999C143.4 81.8999 145.1 83.6999 145.4 85.9999V85.9999Z" fill="#141414"/>
    <path d="M157 94.2001H150.5C149.8 94.2001 149.3 93.7001 149.3 93.0001V83.1001C149.3 82.6001 149.7 82.1001 150.3 82.1001H150.7C151.3 82.1001 151.7 82.6001 151.7 83.1001V91.0001C151.7 91.7001 152.3 92.2001 153 92.2001H157C157.6 92.2001 158 92.7001 158 93.2001C158 93.8001 157.6 94.2001 157 94.2001Z" fill="#141414"/>
    <path d="M171.5 89.3001C171.5 89.8001 171.5 90.2001 171.5 90.7001C171.3 92.7001 169.9 94.5001 166.5 94.5001C163.1 94.5001 161.7 92.7001 161.5 90.7001C161.5 90.2001 161.5 89.8001 161.5 89.3001V83.1001C161.5 82.6001 162 82.1001 162.5 82.1001H162.9C163.5 82.1001 163.9 82.6001 163.9 83.1001V89.5001C163.9 89.9001 163.9 90.2001 163.9 90.4001C164 91.8001 164.9 92.7001 166.5 92.7001C168.1 92.7001 169 91.8001 169.1 90.4001C169.1 90.2001 169.1 89.9001 169.1 89.5001V83.1001C169.1 82.6001 169.5 82.1001 170.1 82.1001H170.5C171.1 82.1001 171.5 82.6001 171.5 83.1001V89.3001Z" fill="#141414"/>
    <path fill-rule="evenodd" clip-rule="evenodd" d="M185.2 90.6001C185.2 92.9001 183.5 93.9001 181.9 94.2001C181.2 94.2001 180.9 94.2001 180.2 94.2001H177C176.3 94.2001 175.8 93.7001 175.8 93.0001V83.4001C175.8 82.7001 176.3 82.1001 177 82.1001H180.1C180.7 82.1001 181.1 82.1001 181.7 82.2001C183.6 82.4001 184.7 83.6001 184.7 85.2001C184.7 85.8668 184.534 86.4001 184.2 86.8001C183.8 87.3001 183.8 88.0001 184.3 88.4001C184.9 88.9334 185.2 89.6668 185.2 90.6001V90.6001ZM178.2 85.8001C178.2 86.5001 178.7 87.1001 179.4 87.1001H180C180.4 87.1001 180.767 87.0668 181.1 87.0001C181.6 86.9001 182 86.5001 182.1 86.0001C182.4 84.8001 181.8 84.2001 180.8 84.1001C180.5 84.0001 180.2 84.0001 179.9 84.0001H178.2V85.8001ZM182.6 90.6001C182.6 89.5001 181.9 89.0001 181.1 88.9001C180.767 88.9001 180.467 88.9001 180.2 88.9001H179.4C178.7 88.9001 178.2 89.4001 178.2 90.1001V91.0001C178.2 91.7001 178.7 92.3001 179.4 92.3001H180.3C180.6 92.3001 180.9 92.3001 181.1 92.3001C181.9 92.2001 182.6 91.6001 182.6 90.6001Z" fill="#141414"/>
    <path d="M112.1 81.2998V110.4C112.1 111.1 111.5 111.6 110.8 111.6H3.5002C2.8002 111.6 2.2002 111.1 2.2002 110.4V3.09981C2.2002 2.39981 2.8002 1.7998 3.5002 1.7998H110.8C111.5 1.7998 112.1 2.39981 112.1 3.09981V30.1998" stroke="#141414" stroke-width="2.9" stroke-linecap="round"/>
    <path d="M131.3 98.3999V127.5C131.3 128.1 130.7 128.7 130 128.7H22.7C22 128.7 21.5 128.1 21.5 127.5V20.0999C21.5 19.3999 22 18.8999 22.7 18.8999H130C130.7 18.8999 131.3 19.3999 131.3 20.0999V47.3999" stroke="#141414" stroke-width="2.9" stroke-linecap="round"/>
    <path d="M150.7 116.3V144.5C150.7 145.2 150.1 145.8 149.4 145.8H42.1003C41.4003 145.8 40.8003 145.2 40.8003 144.5V37.2C40.8003 36.5 41.4003 36 42.1003 36H149.4C150.1 36 150.7 36.5 150.7 37.2V65.3" stroke="#141414" stroke-width="2.9" stroke-linecap="round"/>
    <path d="M14.5 66.2997C14.5 62.3997 16 59.0997 18.5 56.6997V76.2997C15.9 73.8997 14.5 70.7997 14.5 66.2997Z" fill="#141414"/>
    <path d="M18.5003 99.4996C15.4003 97.0996 13.3003 93.5996 12.6003 89.0996C12.5003 88.2996 13.1002 87.5996 13.9002 87.5996H18.5003V99.4996Z" fill="#141414"/>
    <path d="M31.8003 82.1999C29.0003 81.4999 26.5003 80.6999 24.3003 79.7999V52.9999C26.9003 51.9999 29.9003 51.3999 32.9003 51.3999C34.7003 51.3999 36.4003 51.5999 37.9003 51.8999V61.7999C36.6003 60.5999 34.8003 59.8999 32.6003 59.8999C29.0003 59.8999 26.4003 61.5999 26.4003 65.1999C26.4003 68.9999 29.0003 70.9999 37.1003 72.8999C37.367 72.9666 37.6336 73.0332 37.9003 73.0999V84.3999C36.5003 83.5999 34.5003 82.7999 31.8003 82.1999V82.1999Z" fill="#141414"/>
    <path d="M43.7002 53.8999C48.4002 56.3999 50.9002 60.7999 51.8002 65.9999C52.0002 66.7999 51.4002 67.4999 50.6002 67.4999H43.7002V53.8999Z" fill="#141414"/>
    <path d="M37.9003 103.4C36.567 103.6 35.2003 103.7 33.8003 103.7C30.267 103.7 27.1003 103.267 24.3003 102.4V89C25.7003 93.2 29.4003 95.3 33.6003 95.3C35.2003 95.3 36.7003 94.9 37.9003 94.3V103.4Z" fill="#141414"/>
    <path d="M52.9002 88.6997C52.9002 94.9997 49.1002 99.3997 43.7002 101.8V75.1997C50.1002 78.0997 52.9002 82.5997 52.9002 88.6997Z" fill="#141414"/>
</svg>
    